<svg width="822" height="363" viewBox="0 0 822 363" fill="none" xmlns="http://www.w3.org/2000/svg">
<path d="M92.6792 212.96C124.042 212.96 147.282 205.541 162.4 190.702C177.518 175.864 185.077 152.324 185.077 120.082V0H130.145V112.663C130.145 118.708 129.911 124.891 129.441 131.211C128.972 137.531 127.516 143.256 125.075 148.385C122.633 153.514 118.924 157.682 113.948 160.888C108.971 164.094 101.881 165.697 92.6792 165.697C83.477 165.697 76.3406 164.094 71.27 160.888C66.1994 157.682 62.4904 153.514 60.1429 148.385C57.7954 143.256 56.3869 137.531 55.9174 131.211C55.4479 124.891 55.2132 118.708 55.2132 112.663V0H0V120.082C0 152.324 7.6059 175.864 22.8177 190.702C38.0295 205.541 61.3166 212.96 92.6792 212.96ZM253.107 207.189V138.493H285.784C309.635 138.493 327.899 132.447 340.575 120.357C353.252 108.266 359.59 91.2293 359.59 69.2463C359.59 47.2634 353.252 30.2266 340.575 18.1359C327.899 6.04532 309.635 0 285.784 0H197.894V207.189H253.107ZM271.418 95.0763H253.107V43.4164H271.418C291.7 43.4164 301.841 52.0264 301.841 69.2463C301.841 86.4663 291.7 95.0763 271.418 95.0763ZM412.409 207.189V138.493H445.086C468.936 138.493 487.2 132.447 499.876 120.357C512.553 108.266 518.891 91.2293 518.891 69.2463C518.891 47.2634 512.553 30.2266 499.876 18.1359C487.2 6.04532 468.936 0 445.086 0H357.195V207.189H412.409ZM430.719 95.0763H412.409V43.4164H430.719C451.001 43.4164 461.143 52.0264 461.143 69.2463C461.143 86.4663 451.001 95.0763 430.719 95.0763ZM637.346 207.189V161.575H571.71V125.852H633.684V80.2378H571.71V45.6147H637.346V0H516.497V207.189H637.346ZM700.587 207.189V127.501L753.265 207.189H822L755.237 122.28C770.449 118.8 781.952 112.159 789.745 102.358C797.539 92.5575 801.436 79.7798 801.436 64.0254C801.436 55.2322 799.98 46.9886 797.07 39.2946C794.159 31.6005 789.839 24.8224 784.111 18.9603C778.384 13.0982 771.106 8.4726 762.28 5.08356C753.453 1.69452 743.124 0 731.293 0H645.374V207.189H700.587ZM711.01 92.6032H700.587V41.4929H711.01C721.903 41.4929 730.26 43.6911 736.082 48.0877C741.903 52.4843 744.814 58.8044 744.814 67.048C744.814 75.2917 741.903 81.6118 736.082 86.0084C730.26 90.4049 721.903 92.6032 711.01 92.6032Z" fill="#3A9D3D"/>
<path d="M255.103 249.562H17.0068V266.578H255.103V249.562Z" fill="#404040"/>
<path d="M243.765 272.25H11.3379V289.266H243.765V272.25Z" fill="#404040"/>
<path d="M259.469 294.938H5.66895V311.953H259.469V294.938Z" fill="#404040"/>
<path d="M278.35 321.452C285.961 321.452 292.303 320.173 297.377 317.615C302.396 315.112 307.276 310.704 312.019 304.392L298.37 296.964C293.792 303.276 287.229 306.432 278.681 306.432C272.449 306.432 267.32 304.609 263.294 300.963C259.323 297.317 257.338 292.665 257.338 287.005H317.562C317.727 284.067 317.81 281.944 317.81 280.638C317.81 268.122 314.418 258.136 307.635 250.681C300.962 243.28 291.834 239.58 280.253 239.58C268.285 239.58 258.386 243.689 250.554 251.906C242.668 260.177 238.725 270.462 238.725 282.761C238.725 294.515 242.309 303.902 249.479 310.922C256.648 317.942 266.272 321.452 278.35 321.452ZM299.28 272.476H258.331C261.584 260.613 268.588 254.681 279.343 254.681C290.704 254.681 297.349 260.613 299.28 272.476ZM343.372 319.003L368.521 289.781L386.968 319.003H408.146L380.102 277.7L412.779 242.11H389.45L370.837 264.15L357.022 242.11H336.092L359.338 276.23L319.795 319.003H343.372ZM435.445 363L442.312 307.983C446.779 312.827 450.998 316.173 454.969 318.024C458.774 319.874 463.655 320.799 469.611 320.799C481.248 320.799 490.982 316.69 498.813 308.473C506.699 300.202 510.643 290.025 510.643 277.945C510.643 267.061 507.196 258.055 500.302 250.926C493.408 243.797 484.777 240.233 474.409 240.233C465.695 240.233 457.395 243.552 449.509 250.191L450.501 242.11H432.219L417.163 363H435.445ZM467.708 305.779C461.09 305.779 455.685 303.657 451.494 299.413C447.303 295.277 445.207 289.808 445.207 283.006C445.207 275.224 447.689 268.666 452.652 263.333C457.616 258 463.793 255.334 471.183 255.334C477.36 255.334 482.433 257.538 486.404 261.946C490.375 266.299 492.36 271.877 492.36 278.679C492.36 286.189 489.989 292.61 485.246 297.943C480.503 303.167 474.657 305.779 467.708 305.779ZM544.725 319.003L549.524 280.638C550.02 276.394 550.696 272.748 551.55 269.7C552.405 266.653 553.481 264.163 554.777 262.231C556.073 260.3 557.603 258.885 559.368 257.987C561.133 257.089 563.173 256.64 565.49 256.64C568.854 256.64 572.218 258.055 575.582 260.885L587.246 246.028C582.724 242.056 577.705 240.07 572.19 240.07C565.903 240.07 559.671 242.954 553.494 248.722L554.322 242.11H536.039L526.443 319.003H544.725ZM629.933 321.452C637.543 321.452 643.886 320.173 648.959 317.615C653.978 315.112 658.859 310.704 663.602 304.392L649.952 296.964C645.375 303.276 638.812 306.432 630.263 306.432C624.031 306.432 618.902 304.609 614.877 300.963C610.906 297.317 608.92 292.665 608.92 287.005H669.144C669.31 284.067 669.393 281.944 669.393 280.638C669.393 268.122 666.001 258.136 659.217 250.681C652.544 243.28 643.417 239.58 631.835 239.58C619.868 239.58 609.968 243.689 602.137 251.906C594.25 260.177 590.307 270.462 590.307 282.761C590.307 294.515 593.892 303.902 601.061 310.922C608.231 317.942 617.855 321.452 629.933 321.452ZM650.862 272.476H609.913C613.167 260.613 620.171 254.681 630.925 254.681C642.286 254.681 648.932 260.613 650.862 272.476ZM709.432 321.452C717.814 321.452 724.625 319.275 729.865 314.922C734.994 310.514 737.558 304.664 737.558 297.372C737.558 292.311 736.29 288.202 733.753 285.046C731.381 281.836 726.694 278.298 719.69 274.435C714.781 271.768 711.555 269.646 710.011 268.068C708.466 266.544 707.694 264.667 707.694 262.436C707.694 260.15 708.618 258.232 710.466 256.681C712.313 255.13 714.643 254.354 717.456 254.354C721.592 254.354 726.087 256.504 730.94 260.803L741.281 250.6C733.836 243.253 725.701 239.58 716.877 239.58C708.88 239.58 702.29 241.866 697.105 246.437C691.921 251.008 689.329 256.776 689.329 263.742C689.329 268.367 690.46 272.285 692.721 275.496C694.982 278.543 699.036 281.672 704.882 284.883C708.191 286.624 710.81 288.121 712.741 289.372C714.671 290.624 716.022 291.604 716.794 292.311C718.393 293.726 719.193 295.576 719.193 297.862C719.193 300.474 718.242 302.596 716.339 304.229C714.436 305.861 711.913 306.677 708.77 306.677C703.2 306.677 697.96 303.766 693.052 297.943L681.057 306.188C688.557 316.364 698.015 321.452 709.432 321.452ZM777.845 321.452C786.228 321.452 793.039 319.275 798.279 314.922C803.408 310.514 805.972 304.664 805.972 297.372C805.972 292.311 804.704 288.202 802.167 285.046C799.795 281.836 795.107 278.298 788.103 274.435C783.195 271.768 779.969 269.646 778.424 268.068C776.88 266.544 776.108 264.667 776.108 262.436C776.108 260.15 777.032 258.232 778.879 256.681C780.727 255.13 783.057 254.354 785.87 254.354C790.006 254.354 794.501 256.504 799.354 260.803L809.695 250.6C802.249 243.253 794.115 239.58 785.291 239.58C777.294 239.58 770.703 241.866 765.519 246.437C760.335 251.008 757.743 256.776 757.743 263.742C757.743 268.367 758.874 272.285 761.135 275.496C763.396 278.543 767.45 281.672 773.295 284.883C776.604 286.624 779.224 288.121 781.154 289.372C783.085 290.624 784.436 291.604 785.208 292.311C786.807 293.726 787.607 295.576 787.607 297.862C787.607 300.474 786.656 302.596 784.753 304.229C782.85 305.861 780.327 306.677 777.184 306.677C771.613 306.677 766.374 303.766 761.466 297.943L749.471 306.188C756.971 316.364 766.429 321.452 777.845 321.452Z" fill="#999999"/>
</svg>
